<svg width="24" height="24" viewBox="0 0 24 24" fill="none" xmlns="http://www.w3.org/2000/svg">
<path d="M19.148 2.971C18.9697 2.67566 18.7183 2.43119 18.4181 2.26113C18.1179 2.09107 17.779 2.00114 17.434 2H6.566C5.868 2 5.211 2.372 4.852 2.971L2.143 7.485C2.04949 7.64051 2.00006 7.81854 2 8C2.00399 8.96521 2.35949 9.89591 3 10.618V19C3 20.103 3.897 21 5 21H19C20.103 21 21 20.103 21 19V10.618C21.6405 9.89591 21.996 8.96521 22 8C21.9999 7.81854 21.9505 7.64051 21.857 7.485L19.148 2.971ZM19.984 8.251C19.9229 8.73408 19.6876 9.17827 19.3224 9.50027C18.9571 9.82227 18.4869 9.99995 18 10C16.897 10 16 9.103 16 8C16 7.932 15.975 7.872 15.961 7.808L15.981 7.804L15.22 4H17.434L19.984 8.251ZM10.819 4H13.18L13.993 8.065C13.958 9.137 13.08 10 12 10C10.92 10 10.042 9.137 10.007 8.065L10.819 4ZM6.566 4H8.78L8.02 7.804L8.04 7.808C8.025 7.872 8 7.932 8 8C8 9.103 7.103 10 6 10C5.51307 9.99995 5.04288 9.82227 4.67762 9.50027C4.31236 9.17827 4.07711 8.73408 4.016 8.251L6.566 4ZM10 19V16H14V19H10ZM16 19V16C16 14.897 15.103 14 14 14H10C8.897 14 8 14.897 8 16V19H5V11.858C5.321 11.941 5.652 12 6 12C6.56771 11.9997 7.12885 11.8785 7.6461 11.6445C8.16336 11.4105 8.62488 11.0691 9 10.643C9.733 11.475 10.807 12 12 12C13.193 12 14.267 11.475 15 10.643C15.3751 11.0691 15.8366 11.4105 16.3539 11.6445C16.8712 11.8785 17.4323 11.9997 18 12C18.348 12 18.679 11.941 19 11.858V19H16Z" fill="#D4A7FF"/>
</svg>
